<svg width="24" height="24" viewBox="0 0 24 24" fill="none" xmlns="http://www.w3.org/2000/svg">
<path d="M14.7857 15.4286C15.2972 15.4286 15.7877 15.6318 16.1494 15.9935C16.5111 16.3551 16.7143 16.8457 16.7143 17.3572V18.6446L16.7074 18.7372C16.4417 20.5603 14.8046 21.4363 12.0574 21.4363C9.32057 21.4363 7.65686 20.5706 7.29772 18.7689L7.28572 18.6429V17.3572C7.28572 16.8457 7.4889 16.3551 7.85058 15.9935C8.21226 15.6318 8.7028 15.4286 9.21429 15.4286H14.7857ZM14.7857 16.7143H9.21429C9.04379 16.7143 8.88028 16.782 8.75972 16.9026C8.63916 17.0232 8.57143 17.1867 8.57143 17.3572V18.5743C8.81143 19.6029 9.9 20.1506 12.0574 20.1506C14.214 20.1506 15.2546 19.6097 15.4286 18.594V17.3572C15.4286 17.1867 15.3608 17.0232 15.2403 16.9026C15.1197 16.782 14.9562 16.7143 14.7857 16.7143ZM15.6377 10.2849L20.3571 10.2857C20.8686 10.2857 21.3592 10.4889 21.7208 10.8506C22.0825 11.2123 22.2857 11.7028 22.2857 12.2143V13.5017L22.2789 13.5943C22.0131 15.4174 20.376 16.2934 17.6289 16.2934L17.3589 16.2909C17.1058 15.6807 16.6444 15.1802 16.0569 14.8783C16.4983 14.964 17.0211 15.0077 17.6289 15.0077C19.7854 15.0077 20.826 14.4669 21 13.4512V12.2143C21 12.0438 20.9323 11.8803 20.8117 11.7597C20.6912 11.6392 20.5276 11.5714 20.3571 11.5714H15.8571C15.8571 11.1206 15.78 10.6869 15.6377 10.2849ZM3.64286 10.2857L8.36229 10.2849C8.24125 10.6273 8.16939 10.9851 8.14886 11.3477L8.14286 11.5714H3.64286C3.47236 11.5714 3.30885 11.6392 3.18829 11.7597C3.06773 11.8803 3 12.0438 3 12.2143V13.4314C3.24 14.46 4.32857 15.0077 6.486 15.0077C7.01914 15.0077 7.48372 14.9743 7.88486 14.9092C7.32382 15.214 6.88425 15.702 6.63943 16.2917L6.48514 16.2934C3.74914 16.2934 2.08543 15.4277 1.72629 13.626L1.71429 13.5V12.2143C1.71429 11.7028 1.91747 11.2123 2.27915 10.8506C2.64083 10.4889 3.13137 10.2857 3.64286 10.2857ZM12 8.57145C12.7957 8.57145 13.5587 8.88752 14.1213 9.45013C14.6839 10.0127 15 10.7758 15 11.5714C15 12.3671 14.6839 13.1302 14.1213 13.6928C13.5587 14.2554 12.7957 14.5714 12 14.5714C11.2044 14.5714 10.4413 14.2554 9.87868 13.6928C9.31607 13.1302 9 12.3671 9 11.5714C9 10.7758 9.31607 10.0127 9.87868 9.45013C10.4413 8.88752 11.2044 8.57145 12 8.57145ZM12 9.85716C11.5453 9.85716 11.1093 10.0378 10.7878 10.3593C10.4663 10.6808 10.2857 11.1168 10.2857 11.5714C10.2857 12.0261 10.4663 12.4621 10.7878 12.7836C11.1093 13.1051 11.5453 13.2857 12 13.2857C12.4547 13.2857 12.8907 13.1051 13.2122 12.7836C13.5337 12.4621 13.7143 12.0261 13.7143 11.5714C13.7143 11.1168 13.5337 10.6808 13.2122 10.3593C12.8907 10.0378 12.4547 9.85716 12 9.85716ZM17.5714 3.42859C18.3671 3.42859 19.1301 3.74466 19.6928 4.30727C20.2554 4.86988 20.5714 5.63294 20.5714 6.42859C20.5714 7.22424 20.2554 7.9873 19.6928 8.54991C19.1301 9.11252 18.3671 9.42859 17.5714 9.42859C16.7758 9.42859 16.0127 9.11252 15.4501 8.54991C14.8875 7.9873 14.5714 7.22424 14.5714 6.42859C14.5714 5.63294 14.8875 4.86988 15.4501 4.30727C16.0127 3.74466 16.7758 3.42859 17.5714 3.42859ZM6.42857 3.42859C7.22422 3.42859 7.98728 3.74466 8.54989 4.30727C9.1125 4.86988 9.42857 5.63294 9.42857 6.42859C9.42857 7.22424 9.1125 7.9873 8.54989 8.54991C7.98728 9.11252 7.22422 9.42859 6.42857 9.42859C5.63292 9.42859 4.86986 9.11252 4.30725 8.54991C3.74464 7.9873 3.42857 7.22424 3.42857 6.42859C3.42857 5.63294 3.74464 4.86988 4.30725 4.30727C4.86986 3.74466 5.63292 3.42859 6.42857 3.42859ZM17.5714 4.7143C17.1168 4.7143 16.6807 4.89491 16.3592 5.21641C16.0378 5.5379 15.8571 5.97393 15.8571 6.42859C15.8571 6.88325 16.0378 7.31928 16.3592 7.64077C16.6807 7.96226 17.1168 8.14287 17.5714 8.14287C18.0261 8.14287 18.4621 7.96226 18.7836 7.64077C19.1051 7.31928 19.2857 6.88325 19.2857 6.42859C19.2857 5.97393 19.1051 5.5379 18.7836 5.21641C18.4621 4.89491 18.0261 4.7143 17.5714 4.7143ZM6.42857 4.7143C5.97392 4.7143 5.53788 4.89491 5.21639 5.21641C4.8949 5.5379 4.71429 5.97393 4.71429 6.42859C4.71429 6.88325 4.8949 7.31928 5.21639 7.64077C5.53788 7.96226 5.97392 8.14287 6.42857 8.14287C6.88323 8.14287 7.31926 7.96226 7.64076 7.64077C7.96225 7.31928 8.14286 6.88325 8.14286 6.42859C8.14286 5.97393 7.96225 5.5379 7.64076 5.21641C7.31926 4.89491 6.88323 4.7143 6.42857 4.7143Z" fill="black"/>
</svg>
